<svg width="24" height="24" viewBox="0 0 24 24" fill="none" xmlns="http://www.w3.org/2000/svg">
<g clip-path="url(#clip0)">
<path d="M5.13876 19.2039C2.26246 18.6061 5.21282 16.809 7.60935 16.2053L10.7557 18.0988C10.0819 18.7162 8.01506 19.8017 5.13876 19.2039Z" fill="#0068DF"/>
<path d="M12.0669 14.5858C15.2371 14.5858 17.807 12.1508 17.807 9.14704C17.807 6.14332 15.2371 3.70831 12.0669 3.70831C8.89668 3.70831 6.32671 6.14332 6.32671 9.14704C6.32671 12.1508 8.89668 14.5858 12.0669 14.5858ZM12.1329 3.8147e-06C17.4529 3.8147e-06 21.7657 4.09532 21.7657 9.14704C21.7657 13.7625 18.1655 17.5788 13.4863 18.2037L13.4928 23.1189L6.12672 16.298C3.91645 14.622 2.49996 12.0418 2.49996 9.14704C2.49996 4.09532 6.81275 3.8147e-06 12.1329 3.8147e-06Z" fill="#0083FF"/>
<ellipse cx="12.0628" cy="8.9151" rx="6.58141" ry="5.78746" transform="rotate(15.5644 12.0628 8.9151)" fill="white"/>
<path d="M15.1376 8.91609C14.8634 9.3911 15.0185 9.99411 15.4842 10.263C15.9499 10.5318 16.5497 10.3647 16.824 9.88971C17.0982 9.41472 16.943 8.81171 16.4773 8.54285C16.0116 8.27398 15.4118 8.4411 15.1376 8.91609ZM16.8103 10.7462C16.1453 11.8981 14.6725 12.2927 13.5206 11.6277C12.3688 10.9627 11.9742 9.48983 12.6392 8.338C13.3042 7.18616 14.777 6.79152 15.9289 7.45652C17.0807 8.12154 17.4753 9.59438 16.8103 10.7462Z" fill="#0083FF"/>
<path d="M13.0121 16.8815C13.6373 18.5488 14.7628 22.2586 14.2626 23.7592C13.7731 25.2274 8.85397 19.6321 6.29951 16.4619L13.0121 16.8815Z" fill="#0083FF"/>
</g>
<defs>
<clipPath id="clip0">
<rect width="24" height="24" fill="white"/>
</clipPath>
</defs>
</svg>
