<svg viewBox="0 0 250 209.29" xmlns="http://www.w3.org/2000/svg"><path d="m156.43 2.71c-32.76-4.23-59.61 11.88-88.52 39-23.46 21.99-61.56 23.44-63.81 58.5-2.73 42.68 68.13 46.11 89 66.74 55.48 55 127.31 47.71 145.87-2.78 16.53-44.94-10.38-65.87-19.87-94.79-13.73-41.69-28.1-62.21-62.67-66.67z" fill="#f1f6f8"/><g fill="#fff"><path d="m110.48 129.3-32.42 40.6a10.5 10.5 0 0 1 -14.71 1.64 10.51 10.51 0 0 1 -1.65-14.72l32.42-40.59"/><circle cx="139.07" cy="92.25" r="53.23"/><path d="m115.31 139.07-32.41 40.59a10.5 10.5 0 0 1 -14.72 1.64 10.5 10.5 0 0 1 -1.64-14.72l34.66-43.53"/></g><path d="m92.18 46.53a55.57 55.57 0 1 0 43.41-20.82 55.14 55.14 0 0 0 -43.41 20.82zm43.41-16.28a50.93 50.93 0 1 1 -39.86 19.12 51 51 0 0 1 39.86-19.12z" fill="#b1c7d2"/><path d="m69.85 175.54a12.2 12.2 0 0 1 -9.49-19.8l32.41-40.59 2.7 2.15-32.42 40.6a8.75 8.75 0 0 0 13.67 10.92l32.41-40.59 2.7 2.15-32.42 40.62a12.14 12.14 0 0 1 -8.18 4.5 12.75 12.75 0 0 1 -1.38.04z" fill="#b1c7d2"/><path d="m114.42 84.65h19.75v4.31h-19.75z" fill="#363b3d" transform="matrix(.78282541 -.62224142 .62224142 .78282541 -27.02 96.2)"/><path d="m122.14 76.93h4.31v19.75h-4.31z" fill="#363b3d" transform="matrix(.62210478 -.782934 .782934 .62210478 -20.99 130.12)"/><path d="m130.87 119a2.59 2.59 0 0 1 -1.59-4.63 24.16 24.16 0 0 1 28.64-.41 2.58 2.58 0 0 1 -3 4.17 18.83 18.83 0 0 0 -11-3.5 18.62 18.62 0 0 0 -11.41 3.82 2.58 2.58 0 0 1 -1.64.55z" fill="#363b3d"/><path d="m119.87 112.91a5.89 5.89 0 0 1 -11.78 0c0-3.26 5.89-12.7 5.89-12.7s5.89 9.44 5.89 12.7z" fill="#057bc3"/><path d="m152.87 84.65h19.75v4.31h-19.75z" fill="#363b3d" transform="matrix(.78282541 -.62224142 .62224142 .78282541 -18.67 120.13)"/><path d="m160.59 76.93h4.31v19.75h-4.31z" fill="#363b3d" transform="matrix(.62210478 -.782934 .782934 .62210478 -6.46 160.22)"/><path d="m109.39 71.66a2.59 2.59 0 0 1 -2.11-4.08c.53-.75 1.07-1.48 1.65-2.2a45.17 45.17 0 0 1 30-16.72 2.58 2.58 0 1 1 .63 5.13 40.05 40.05 0 0 0 -26.56 14.83c-.51.63-1 1.28-1.46 1.94a2.58 2.58 0 0 1 -2.15 1.1z" fill="#fff"/></svg>